<?xml version="1.0" encoding="utf-8"?>
<!-- Generator: Adobe Illustrator 26.5.0, SVG Export Plug-In . SVG Version: 6.00 Build 0)  -->
<svg version="1.1" id="Layer_2_00000051375856574404249650000012277455658924873151_"
	 xmlns="http://www.w3.org/2000/svg" xmlns:xlink="http://www.w3.org/1999/xlink" x="0px" y="0px" viewBox="0 0 158 157.6"
	 style="enable-background:new 0 0 158 157.6;" xml:space="preserve">
<style type="text/css">
	.st0{fill:#E65A24;}
	.st1{fill:#0071B1;}
</style>
<g id="Capa_1">
	<g>
		<path class="st0" d="M94.7,86.3c2.1-2.1,3.3-5,3.3-7.9c0-2.2-0.7-4.4-1.9-6.2s-3-3.3-5.1-4.1c-2.1-0.8-4.3-1.1-6.5-0.6
			s-4.2,1.5-5.8,3.1s-2.7,3.6-3.1,5.8s-0.2,4.4,0.6,6.5s2.3,3.8,4.1,5.1c1.8,1.2,4,1.9,6.2,1.9C89.7,89.6,92.6,88.4,94.7,86.3
			L94.7,86.3z"/>
		<path class="st1" d="M79,0C35.4,0,0,35.4,0,79c0,0.2,0,0.4,0,0.7c1.8-0.8,3.6-1.3,5.4-1.3h29.3c13-20.5,30.4-36,59.4-36
			c7.1,0,14.2,0,23.2,1.9c1.6,0.3,3.1,1.9,3.4,3.4c2,9.1,2,16.1,1.9,23.2c0,28.9-15.6,46.3-36,59.4v27.3c40-3.9,71.3-37.6,71.3-78.6
			C158,35.4,122.6,0,79,0z"/>
	</g>
</g>
</svg>
