<?xml version="1.0" encoding="UTF-8"?>
<svg id="Layer_2" data-name="Layer 2" xmlns="http://www.w3.org/2000/svg" viewBox="0 0 158 157.62">
  <defs>
    <style>
      .cls-1 {
        fill: #fff;
      }
    </style>
  </defs>
  <g id="Capa_1" data-name="Capa 1">
    <g>
      <path class="cls-1" d="M94.69,86.31c2.11-2.11,3.3-4.97,3.3-7.95,0-2.22-.66-4.4-1.9-6.25s-2.99-3.29-5.05-4.14c-2.06-.85-4.32-1.07-6.5-.64-2.18,.43-4.19,1.51-5.76,3.08-1.57,1.57-2.65,3.58-3.08,5.76-.43,2.18-.21,4.44,.64,6.5,.85,2.06,2.29,3.81,4.14,5.05,1.85,1.24,4.02,1.9,6.25,1.9,2.98,0,5.84-1.19,7.95-3.3Z"/>
      <path class="cls-1" d="M79,0C35.37,0,0,35.37,0,79c0,.23,.02,.45,.02,.68,1.76-.83,3.63-1.32,5.38-1.32h29.31c13-20.47,30.41-36,59.44-36,7.06,0,14.15,0,23.2,1.94,1.56,.33,3.1,1.87,3.43,3.43,1.96,9.06,1.96,16.15,1.93,23.23,0,28.88-15.59,46.35-36.01,59.37v27.29c40.01-3.88,71.29-37.59,71.29-78.62C158,35.37,122.63,0,79,0Z"/>
    </g>
  </g>
</svg>