<?xml version="1.0" encoding="UTF-8"?>
<svg id="Layer_2" data-name="Layer 2" xmlns="http://www.w3.org/2000/svg" viewBox="0 0 509.54 157.62">
  <defs>
    <style>
      .cls-1 {
        fill: #fff;
      }
    </style>
  </defs>
  <g id="Capa_1" data-name="Capa 1">
    <g>
      <g>
        <path class="cls-1" d="M177.98,126.4V39.76h21.28c3.85,0,7.33,.36,10.43,1.07,3.1,.71,5.78,1.91,8.02,3.58,2.25,1.68,3.97,3.94,5.19,6.79,1.21,2.85,1.82,6.45,1.82,10.8,0,3.49-.48,6.49-1.44,8.98-.96,2.5-2.37,4.48-4.23,5.94-1.85,1.46-4.17,2.44-6.95,2.94,3.42,.57,6.26,1.76,8.5,3.58s3.92,4.19,5.03,7.11c1.1,2.92,1.66,6.45,1.66,10.59s-.52,7.79-1.55,10.96c-1.03,3.17-2.57,5.81-4.6,7.92-2.03,2.1-4.56,3.69-7.59,4.76-3.03,1.07-6.58,1.6-10.64,1.6h-24.92Zm15.83-51.23h5.35c3.14,0,5.56-.46,7.27-1.39,1.71-.93,2.9-2.35,3.58-4.28,.68-1.93,1.02-4.35,1.02-7.27s-.52-5.44-1.55-7.11c-1.03-1.67-2.58-2.82-4.65-3.42-2.07-.61-4.71-.91-7.92-.91h-3.1v24.39Zm0,40.11h5.99c4.78,0,8.02-1.16,9.73-3.48,1.71-2.32,2.57-5.9,2.57-10.75,0-3.49-.41-6.33-1.23-8.5-.82-2.17-2.18-3.8-4.06-4.87-1.89-1.07-4.4-1.6-7.54-1.6h-5.45v29.2Z"/>
        <path class="cls-1" d="M255.31,127.36c-4.49,0-8.2-.84-11.12-2.51-2.92-1.67-5.12-4.12-6.58-7.33-1.46-3.21-2.19-7.09-2.19-11.66v-20.75c0-4.56,.73-8.45,2.19-11.66,1.46-3.21,3.65-5.65,6.58-7.33,2.92-1.67,6.63-2.51,11.12-2.51s8.22,.84,11.18,2.51c2.96,1.68,5.17,4.12,6.63,7.33,1.46,3.21,2.19,7.1,2.19,11.66v20.75c0,4.56-.73,8.45-2.19,11.66-1.46,3.21-3.67,5.65-6.63,7.33-2.96,1.67-6.68,2.51-11.18,2.51Zm.11-10.05c1.64,0,2.85-.46,3.64-1.39,.78-.93,1.28-2.19,1.5-3.8,.21-1.6,.32-3.37,.32-5.29v-22.67c0-1.93-.11-3.67-.32-5.24-.21-1.57-.71-2.83-1.5-3.8-.79-.96-2-1.44-3.64-1.44s-2.85,.48-3.64,1.44c-.79,.96-1.3,2.23-1.55,3.8-.25,1.57-.37,3.32-.37,5.24v22.67c0,1.92,.12,3.69,.37,5.29,.25,1.6,.77,2.87,1.55,3.8,.78,.93,2,1.39,3.64,1.39Z"/>
        <path class="cls-1" d="M303.97,127.36c-4.49,0-8.2-.84-11.12-2.51-2.92-1.67-5.12-4.12-6.58-7.33-1.46-3.21-2.19-7.09-2.19-11.66v-20.75c0-4.56,.73-8.45,2.19-11.66,1.46-3.21,3.65-5.65,6.58-7.33,2.92-1.67,6.63-2.51,11.12-2.51s8.22,.84,11.18,2.51c2.96,1.68,5.17,4.12,6.63,7.33,1.46,3.21,2.19,7.1,2.19,11.66v20.75c0,4.56-.73,8.45-2.19,11.66-1.46,3.21-3.67,5.65-6.63,7.33-2.96,1.67-6.68,2.51-11.18,2.51Zm.11-10.05c1.64,0,2.85-.46,3.64-1.39,.78-.93,1.28-2.19,1.5-3.8,.21-1.6,.32-3.37,.32-5.29v-22.67c0-1.93-.11-3.67-.32-5.24-.21-1.57-.71-2.83-1.5-3.8-.79-.96-2-1.44-3.64-1.44s-2.85,.48-3.64,1.44c-.79,.96-1.3,2.23-1.55,3.8-.25,1.57-.37,3.32-.37,5.24v22.67c0,1.92,.12,3.69,.37,5.29,.25,1.6,.77,2.87,1.55,3.8,.78,.93,2,1.39,3.64,1.39Z"/>
        <path class="cls-1" d="M350.71,127.36c-5.21,0-9.48-1.39-12.84-4.17-3.35-2.78-5.74-6.84-7.17-12.19l10.8-4.17c.86,3.35,2,5.92,3.42,7.7,1.43,1.78,3.28,2.67,5.56,2.67,1.71,0,3-.43,3.85-1.28,.86-.86,1.28-2.03,1.28-3.53,0-1.71-.52-3.26-1.55-4.65-1.03-1.39-2.8-3.12-5.29-5.19l-7.49-6.31c-2.71-2.35-4.9-4.76-6.58-7.22-1.68-2.46-2.51-5.54-2.51-9.25,0-3.35,.77-6.22,2.3-8.61,1.53-2.39,3.64-4.24,6.31-5.56,2.67-1.32,5.65-1.98,8.93-1.98,4.99,0,9,1.48,12.03,4.44,3.03,2.96,4.97,6.83,5.83,11.61l-9.52,4.06c-.36-1.71-.87-3.3-1.55-4.76-.68-1.46-1.55-2.66-2.62-3.58-1.07-.93-2.32-1.39-3.74-1.39-1.5,0-2.69,.46-3.58,1.39-.89,.93-1.34,2.1-1.34,3.53,0,1.21,.52,2.46,1.55,3.74,1.03,1.28,2.51,2.75,4.44,4.39l7.59,6.84c1.64,1.43,3.21,2.96,4.71,4.6,1.5,1.64,2.74,3.48,3.74,5.51,1,2.03,1.5,4.37,1.5,7.01,0,3.57-.8,6.56-2.41,8.98-1.6,2.43-3.78,4.26-6.52,5.51-2.75,1.25-5.79,1.87-9.14,1.87Z"/>
        <path class="cls-1" d="M394.56,127.15c-3.92,0-7.01-.64-9.25-1.93-2.25-1.28-3.83-3.14-4.76-5.56-.93-2.42-1.39-5.31-1.39-8.66v-36.79h-6.2v-9.63h6.2v-18.5h14.65v18.5h9.41v9.63h-9.41v35.51c0,2.14,.46,3.66,1.39,4.55,.93,.89,2.32,1.34,4.17,1.34,.78,0,1.55-.04,2.3-.11,.75-.07,1.48-.14,2.19-.21v11.12c-1.21,.14-2.62,.3-4.22,.48-1.6,.18-3.3,.27-5.08,.27Z"/>
        <path class="cls-1" d="M412.64,54.74v-12.09h14.55v12.09h-14.55Zm0,71.66v-61.82h14.55v61.82h-14.55Z"/>
        <path class="cls-1" d="M441.73,126.4v-51.66h-6.63v-10.16h6.63v-3.96c0-3.71,.34-6.93,1.02-9.68,.68-2.74,2.1-4.87,4.28-6.36,2.17-1.5,5.47-2.25,9.89-2.25,1.35,0,2.64,.05,3.85,.16,1.21,.11,2.57,.27,4.06,.48v10.8c-.57-.14-1.23-.27-1.98-.37-.75-.11-1.44-.16-2.09-.16-1.71,0-2.89,.53-3.53,1.6-.64,1.07-.96,2.64-.96,4.71v5.03h8.56v10.16h-8.56v51.66h-14.55Z"/>
        <path class="cls-1" d="M471.68,143.19v-10.48c2.5,0,4.53-.14,6.1-.43,1.57-.29,2.71-.79,3.42-1.5,.71-.71,1.07-1.71,1.07-3,0-.93-.23-2.39-.7-4.39-.46-2-.98-4.17-1.55-6.52l-13.58-52.3h14.12l8.02,40.75,6.95-40.75h14.01l-14.44,64.28c-.79,3.64-2.1,6.49-3.96,8.56-1.85,2.07-4.17,3.55-6.95,4.44-2.78,.89-6.03,1.34-9.73,1.34h-2.78Z"/>
      </g>
      <g>
        <path class="cls-1" d="M94.69,86.31c2.11-2.11,3.3-4.97,3.3-7.95,0-2.22-.66-4.4-1.9-6.25s-2.99-3.29-5.05-4.14c-2.06-.85-4.32-1.07-6.5-.64-2.18,.43-4.19,1.51-5.76,3.08-1.57,1.57-2.65,3.58-3.08,5.76-.43,2.18-.21,4.44,.64,6.5,.85,2.06,2.29,3.81,4.14,5.05,1.85,1.24,4.02,1.9,6.25,1.9,2.98,0,5.84-1.19,7.95-3.3Z"/>
        <path class="cls-1" d="M79,0C35.37,0,0,35.37,0,79c0,.23,.02,.45,.02,.68,1.76-.83,3.63-1.32,5.38-1.32h29.31c13-20.47,30.41-36,59.44-36,7.06,0,14.15,0,23.2,1.94,1.56,.33,3.1,1.87,3.43,3.43,1.96,9.06,1.96,16.15,1.93,23.23,0,28.88-15.59,46.35-36.01,59.37v27.29c40.01-3.88,71.29-37.59,71.29-78.62C158,35.37,122.63,0,79,0Z"/>
      </g>
    </g>
  </g>
</svg>